<?xml version="1.0" encoding="utf-8"?>
<!-- Generator: Adobe Illustrator 23.0.4, SVG Export Plug-In . SVG Version: 6.00 Build 0)  -->
<svg version="1.1" id="Layer_1" xmlns="http://www.w3.org/2000/svg" xmlns:xlink="http://www.w3.org/1999/xlink" x="0px" y="0px"
	 viewBox="0 0 187.6 76.4" style="enable-background:new 0 0 187.6 76.4;" xml:space="preserve">
<style type="text/css">
	.st0{fill:#18243F;}
	.st1{fill:#E9425E;}
</style>
<g>
	<path class="st0" d="M14.7,69.7c0,1.5,0.6,2.2,1.9,2.2c1.9,0,3.6-2.4,5.4-7.1l1.6-4.3h1.7L23,67.1c-1.1,3.4-2.8,5.7-4.9,7.1
		c-2.2,1.4-4.5,2.1-7,2.1c-2.7,0-4.7-0.7-6.1-2.1c-1.4-1.4-2.1-3.4-2.1-5.9c0-1.9,0.4-3.9,1.1-6.3l14.1-46.8
		c0.3-1.1,0.4-1.9,0.4-2.5c0-1.2-0.5-2.1-1.4-2.6c-0.9-0.5-2.5-0.8-4.7-0.8l0.6-1.9c4.1-0.1,7.8-0.4,11.1-1c3.3-0.6,6.5-1.5,9.7-2.7
		L15,67.5C14.8,68.3,14.7,69,14.7,69.7z"/>
</g>
<g>
	<path class="st0" d="M71.4,67.5c-0.2,0.6-0.3,1.2-0.3,1.8c0,0.9,0.2,1.6,0.7,2c0.5,0.4,1.1,0.7,2,0.7c1.3,0,2.6-0.6,3.8-1.9
		c1.2-1.3,2.3-3.2,3.3-5.8l1.3-3.7H84l-1.8,5.2c-2.3,7.1-6.8,10.6-13.5,10.6c-3.1,0-5.3-0.8-6.9-2.4c-1.5-1.6-2.3-3.8-2.3-6.5
		c0-1.7,0.3-3.5,0.8-5.4l9.1-31.6h-2.9l-1.4-1.8H70l3.9-13.4c5.1-0.1,9.4-0.5,13-1.3l-4.2,14.6h6.5l-0.5,1.8h-6.6L71.4,67.5z"/>
</g>
<g>
	<path class="st0" d="M126.4,60.6l-2.2,6.6c-2.2,6.2-6.2,9.2-12,9.2c-5.4,0-8.2-2.4-8.2-7.3c0-2.2,0.4-4.5,1.3-7l8-24.2
		c0.5-1.7,0.8-3.1,0.8-3.9c0-1.3-0.6-2-1.7-2c-1.7,0-3.7,1.6-6,4.7c-2.3,3.1-4.7,7.3-7,12.6c-2.4,5.3-4.6,11-6.6,17.2l-2.2,7.5
		c-0.1,0.1-0.1,0.1-0.1,0.3v-0.1l-0.3,1H77.7l17.8-59.8c0.3-1.1,0.4-1.9,0.4-2.5c0-1.2-0.5-2.1-1.4-2.6c-0.9-0.5-2.5-0.8-4.7-0.8
		l0.5-1.9c4.2-0.1,7.9-0.4,11.3-1c3.3-0.6,6.5-1.5,9.6-2.7L99.1,45.5c3.1-6.8,6.1-11.5,9-14.1c3-2.6,6.3-3.9,10.1-3.9
		c2.8,0,4.9,0.6,6.2,1.9c1.3,1.3,2,3,2,5.2c0,1.9-0.4,4-1.3,6.4l-8.8,26.5c-0.4,1.1-0.5,1.9-0.5,2.6c0,1.3,0.6,1.9,1.8,1.9
		c2,0,3.8-2.4,5.6-7.1l1.6-4.3H126.4z"/>
</g>
<g>
	<path class="st0" d="M168.5,60.6h1.7l-2.2,6.6c-1.2,3.4-2.9,5.7-5,7.1c-2.1,1.4-4.4,2.1-6.9,2.1c-3.1,0-5.3-0.9-6.6-2.8
		c-0.8-1.1-1.3-2.6-1.3-4.5c0-1.6,0.3-3.3,0.8-5.3c-2,4.4-4.3,7.6-6.8,9.6c-2.5,2-5.2,3-8.2,3c-3.3,0-5.8-1-7.5-2.9
		c-1.7-1.9-2.6-4.6-2.6-8.1c0-5.3,1.4-11,4.3-16.9c2.8-6,6.4-10.9,10.8-14.9c4.4-4,8.6-6,12.8-6c1.6,0,2.9,0.5,3.9,1.4
		c1,1,1.6,2.4,1.8,4.3l1.3-4.4c4.8-0.1,9.1-0.5,13-1.3l-11.8,40c-0.3,1-0.4,1.9-0.4,2.5c0,1.3,0.6,2,1.7,2c2.1,0,3.9-2.4,5.6-7.1
		L168.5,60.6z M156.6,36.7c0.1-0.3,0.1-0.7,0.1-1.3c0-1.5-0.3-2.6-0.8-3.4c-0.5-0.8-1.3-1.2-2.3-1.2c-2,0-4.4,1.8-7,5.5
		c-2.6,3.6-4.8,8.2-6.6,13.7c-1.8,5.5-2.7,10.8-2.7,16c0,2,0.2,3.4,0.6,4.3c0.4,0.9,1,1.3,1.9,1.3c1.3,0,2.8-0.9,4.4-2.7
		c1.6-1.8,3.2-4.5,4.8-7.9c1.6-3.4,3-7.5,4.2-12.2l-0.4,2.2L156.6,36.7z"/>
</g>
<g>
	<path class="st0" d="M56.9,47.6c-5.6,3.7-12,6.6-19.4,8.6c-0.4,2-0.5,4.1-0.5,6.1c0,3.2,0.6,5.4,1.8,6.7c1.2,1.3,2.9,2,5.2,2
		c1.9,0,3.9-0.6,6.3-1.8c2.3-1.2,4.6-3,6.8-5.6c0,0,0,0,4.8-6.2c1.6,0-0.4,2.2-0.4,2.2l-3,4.8c-2.2,3.4-5,6.2-8.7,8.5
		c-3.6,2.3-7.7,3.5-12.2,3.5c-4.1,0-7.5-1.1-10.1-3.3c-2.6-2.2-3.9-5.3-3.9-9.3c0-5.3,1.4-10.8,4.3-16.5c2.9-5.7,6.8-10.4,11.8-14.1
		c5-3.7,10.4-5.6,16.3-5.6c2.8,0,5,0.6,6.7,1.8c1.7,1.2,2.6,3,2.6,5.2C65.2,39.5,62.4,43.9,56.9,47.6z M48,32.9
		c-2.2,2.5-4.2,5.6-6.1,9.6c-1.9,3.9-3.2,7.9-4.1,12.1c4.2-1.9,7.5-3.9,9.9-6c2.4-2.2,4.3-4.6,5.7-7.4c1.4-2.8,2.1-5.8,2.1-8.9
		c0-1.1-0.1-1.9-0.4-2.3c-0.2-0.4-0.6-0.6-1.1-0.6C52.2,29.2,50.2,30.4,48,32.9z"/>
</g>
<circle class="st1" cx="177.1" cy="65.9" r="10.5"/>
</svg>
